<svg xmlns="http://www.w3.org/2000/svg" viewBox="0 0 64 64">
  <path d="M10 6C7.8026661 6 6 7.8026661 6 10L6 54C6 56.197334 7.8026661 58 10 58L54 58C56.197334 58 58 56.197334 58 54L58 10C58 7.8026661 56.197334 6 54 6L10 6 z M 10 8L54 8C55.116666 8 56 8.8833339 56 10L56 54C56 55.116666 55.116666 56 54 56L10 56C8.8833339 56 8 55.116666 8 54L8 10C8 8.8833339 8.8833339 8 10 8 z M 27.5 15C21.160562 15 16 20.160562 16 26.5L16 38C16 42.901879 19.215065 47.069907 23.662109 48.484375 A 1.0003438 1.0003438 0 1 0 24.269531 46.578125C20.636576 45.422593 18 42.028121 18 38L18 26.5C18 21.241438 22.241438 17 27.5 17C32.758562 17 37 21.241438 37 26.5L37 27 A 1.0001 1.0001 0 0 0 38 28L38.5 28C43.758562 28 48 32.241438 48 37.5C48 42.290603 44.469688 46.234572 39.875 46.900391 A 1.0005855 1.0005855 0 1 0 40.162109 48.880859C45.725421 48.074678 50 43.275397 50 37.5C50 31.308015 45.052331 26.316362 38.916016 26.083984C38.683638 19.947669 33.691985 15 27.5 15 z M 27.568359 20C27.332751 19.997331 27.094112 20.007763 26.853516 20.03125C23.451491 20.362168 21 23.387131 21 26.744141L21 38C21 41.301625 23.698375 44 27 44L38.5 44C42.078268 44 45 41.078268 45 37.5C45 33.921732 42.078268 31 38.5 31L34 31L34 26.5C34 22.948791 31.102492 20.040034 27.568359 20 z M 27.550781 22C30.027412 22.023189 32 24.026834 32 26.5L32 32 A 1.0001 1.0001 0 0 0 33 33L38.5 33C40.997732 33 43 35.002268 43 37.5C43 39.997732 40.997732 42 38.5 42L27 42C24.779625 42 23 40.220375 23 38L23 26.744141C23 24.35915 24.7329 22.246567 27.046875 22.021484 A 1.0001 1.0001 0 0 0 27.048828 22.021484C27.217979 22.004971 27.385673 21.998454 27.550781 22 z M 27.984375 45.986328 A 1.0001 1.0001 0 0 0 27 47L27 49 A 1.0001 1.0001 0 1 0 29 49L29 47 A 1.0001 1.0001 0 0 0 27.984375 45.986328 z M 31.984375 45.986328 A 1.0001 1.0001 0 0 0 31 47L31 49 A 1.0001 1.0001 0 1 0 33 49L33 47 A 1.0001 1.0001 0 0 0 31.984375 45.986328 z M 35.984375 45.986328 A 1.0001 1.0001 0 0 0 35 47L35 49 A 1.0001 1.0001 0 1 0 37 49L37 47 A 1.0001 1.0001 0 0 0 35.984375 45.986328 z" fill="#5B5B5B" />
</svg>