<svg xmlns="http://www.w3.org/2000/svg" viewBox="0 0 64 64">
  <path d="M11.78125 5.0175781C11.39225 5.0175781 11.037047 5.2456094 10.873047 5.5996094L5.0917969 18.126953C5.0307969 18.257953 5 18.399922 5 18.544922L5 51C5 51.552 5.447 52 6 52L19 52L19 60C19 60.266 19.105922 60.520031 19.294922 60.707031C19.481922 60.894031 19.735 61 20 61L20.003906 61L25.275391 60.982422C25.510391 60.981422 25.735063 60.898047 25.914062 60.748047L36.363281 52L46 52C46.29 52 46.564859 51.873297 46.755859 51.654297L59.755859 36.654297C59.912859 36.472297 60 36.241 60 36L60 6.0175781C60 5.4655781 59.553 5.0175781 59 5.0175781L11.78125 5.0175781 z M 12.421875 7.0175781L58 7.0175781L58 35.626953L45.542969 50L36 50C35.766 50 35.537422 50.083375 35.357422 50.234375L24.90625 58.984375L21 58.996094L21 51C21 50.448 20.553 50 20 50L7 50L7 18.765625L12.421875 7.0175781 z M 15 10C14.447 10 14 10.448 14 11L14 20C14 20.552 14.447 21 15 21C15.553 21 16 20.552 16 20L16 12L53 12L53 33.65625L46.548828 41L37 41C36.77 41 36.546187 41.080562 36.367188 41.226562L27 48.890625L27 42C27 41.448 26.553 41 26 41L16 41L16 33C16 32.448 15.553 32 15 32C14.447 32 14 32.448 14 33L14 42C14 42.552 14.447 43 15 43L25 43L25 51C25 51.386 25.222312 51.738297 25.570312 51.904297C25.707313 51.968297 25.854 52 26 52C26.227 52 26.451813 51.922438 26.632812 51.773438L37.357422 43L47 43C47.288 43 47.562953 42.876156 47.751953 42.660156L54.751953 34.693359C54.911953 34.511359 55 34.276203 55 34.033203L55 11C55 10.448 54.553 10 54 10L15 10 z M 28 18C27.447 18 27 18.448 27 19L27 33C27 33.552 27.447 34 28 34L33 34C33.553 34 34 33.552 34 33L34 19C34 18.448 33.553 18 33 18L28 18 z M 41 18C40.447 18 40 18.448 40 19L40 33C40 33.552 40.447 34 41 34L46 34C46.553 34 47 33.552 47 33L47 19C47 18.448 46.553 18 46 18L41 18 z M 29 20L32 20L32 32L29 32L29 20 z M 42 20L45 20L45 32L42 32L42 20 z M 15 24C14.447 24 14 24.448 14 25L14 28C14 28.552 14.447 29 15 29C15.553 29 16 28.552 16 28L16 25C16 24.448 15.553 24 15 24 z M 6 55C5.447 55 5 55.448 5 56L5 58C5 58.552 5.447 59 6 59C6.553 59 7 58.552 7 58L7 56C7 55.448 6.553 55 6 55 z M 11 55C10.447 55 10 55.448 10 56L10 58C10 58.552 10.447 59 11 59C11.553 59 12 58.552 12 58L12 56C12 55.448 11.553 55 11 55 z M 16 55C15.447 55 15 55.448 15 56L15 58C15 58.552 15.447 59 16 59C16.553 59 17 58.552 17 58L17 56C17 55.448 16.553 55 16 55 z M 36 55C35.447 55 35 55.448 35 56L35 58C35 58.552 35.447 59 36 59C36.553 59 37 58.552 37 58L37 56C37 55.448 36.553 55 36 55 z M 41 55C40.447 55 40 55.448 40 56L40 58C40 58.552 40.447 59 41 59C41.553 59 42 58.552 42 58L42 56C42 55.448 41.553 55 41 55 z M 46 55C45.447 55 45 55.448 45 56L45 58C45 58.552 45.447 59 46 59C46.553 59 47 58.552 47 58L47 56C47 55.448 46.553 55 46 55 z" fill="#5B5B5B" />
</svg>