<svg xmlns="http://www.w3.org/2000/svg" viewBox="0 0 80 80">
  <path d="M14 10C11.800781 10 10 11.800781 10 14L10 66C10 68.199219 11.800781 70 14 70L66 70C68.199219 70 70 68.199219 70 66L70 14C70 11.800781 68.199219 10 66 10 Z M 14 12L66 12C67.117188 12 68 12.882813 68 14L68 66C68 67.117188 67.117188 68 66 68L14 68C12.882813 68 12 67.117188 12 66L12 14C12 12.882813 12.882813 12 14 12 Z M 50.5 19C46.921875 19 44 21.921875 44 25.5C44 29.078125 46.921875 32 50.5 32C54.078125 32 57 29.078125 57 25.5C57 21.921875 54.078125 19 50.5 19 Z M 36.5 20C33.472656 20 31 22.472656 31 25.5C31 28.527344 33.472656 31 36.5 31C39.527344 31 42 28.527344 42 25.5C42 22.472656 39.527344 20 36.5 20 Z M 24.5 21C22.027344 21 20 23.027344 20 25.5C20 27.972656 22.027344 30 24.5 30C26.972656 30 29 27.972656 29 25.5C29 23.027344 26.972656 21 24.5 21 Z M 50.5 21C52.996094 21 55 23.003906 55 25.5C55 27.996094 52.996094 30 50.5 30C48.003906 30 46 27.996094 46 25.5C46 23.003906 48.003906 21 50.5 21 Z M 36.5 22C38.445313 22 40 23.554688 40 25.5C40 27.445313 38.445313 29 36.5 29C34.554688 29 33 27.445313 33 25.5C33 23.554688 34.554688 22 36.5 22 Z M 24.5 23C25.890625 23 27 24.109375 27 25.5C27 26.890625 25.890625 28 24.5 28C23.109375 28 22 26.890625 22 25.5C22 24.109375 23.109375 23 24.5 23 Z M 25.5 32C22.472656 32 20 34.472656 20 37.5L20 50C20 50.550781 20.449219 51 21 51L29 51L29 55C29 55.550781 29.449219 56 30 56L42 56L42 60C42 60.550781 42.449219 61 43 61L58 61C58.550781 61 59 60.550781 59 60L59 43.5C59 38.816406 55.183594 35 50.5 35C47.613281 35 45.183594 36.542969 43.644531 38.75C42.835938 35.484375 40.011719 33 36.5 33C34.105469 33 32.0625 34.203125 30.6875 35.960938C30.007813 33.695313 27.980469 32 25.5 32 Z M 25.5 34C27.445313 34 29 35.554688 29 37.5L29 40.5L31 40.5C31 37.449219 33.449219 35 36.5 35C39.550781 35 42 37.449219 42 40.5L42 43.5C42.007813 44.046875 42.453125 44.484375 43 44.484375C43.546875 44.484375 43.992188 44.046875 44 43.5C44 39.898438 46.898438 37 50.5 37C54.101563 37 57 39.898438 57 43.5L57 59L44 59L44 55C44 54.449219 43.550781 54 43 54L31 54L31 50C31 49.449219 30.550781 49 30 49L22 49L22 37.5C22 35.554688 23.554688 34 25.5 34 Z M 30 41C29.449219 41 29 41.449219 29 42C29 42.550781 29.449219 43 30 43C30.550781 43 31 42.550781 31 42C31 41.449219 30.550781 41 30 41 Z M 30 45C29.449219 45 29 45.449219 29 46C29 46.550781 29.449219 47 30 47C30.550781 47 31 46.550781 31 46C31 45.449219 30.550781 45 30 45 Z M 43 46C42.449219 46 42 46.449219 42 47C42 47.550781 42.449219 48 43 48C43.550781 48 44 47.550781 44 47C44 46.449219 43.550781 46 43 46 Z M 43 50C42.449219 50 42 50.449219 42 51C42 51.550781 42.449219 52 43 52C43.550781 52 44 51.550781 44 51C44 50.449219 43.550781 50 43 50Z" fill="#5B5B5B" />
</svg>